<svg viewBox="0 0 369.19 143.73" xmlns="http://www.w3.org/2000/svg"><defs><style>.cls-1,.cls-3{fill:#7ba6ad}.cls-4{fill:#f14d27}.cls-2{clip-path:url(#clip-path)}.cls-3{stroke:#7fa8ad;stroke-miterlimit:10;stroke-width:.82px}</style><clipPath id="clip-path"><path class="cls-1" d="M0 0h369.19v143.73H0z"/></clipPath></defs><g class="cls-2"><path class="cls-1" d="M134.15 1.71L142.79 0l.32 7.68C149 2.77 156 0 162.43 0c9.18 0 16.75 5.87 16.75 19.21v35.86h-9V19.85c0-9.18-4.48-12.59-10.57-12.59-5.12 0-11.42 2.78-16.54 6.83v41h-9M223.7 23.8v-5.12c0-7.79-3.74-11.74-10.89-11.74-5 0-10.89 1.38-18.36 4.37l-1.38-7A59 59 0 0 1 213.67 0c12.38 0 19 6.3 19 19.21v35.86h-8.54l-.42-6.83c-4.59 4-11.53 8.11-18.68 8.11-9.29 0-15.58-5.23-15.58-13.88 0-12.59 14.19-17.07 34.26-18.67m-16.66 25.4c6.4 0 13.88-4.8 16.65-7.36V29.35c-17.08 1.92-25 5.65-25.08 12.81-.11 4.59 2.78 7.04 8.43 7.04zm86.45 5.87h-9v-41C279.42 10 273.11 7.26 268 7.26c-6.09 0-10.57 3.41-10.57 12.59v35.22h-9V19.21C248.46 5.87 256 0 265.22 0c6.4 0 13.45 2.77 19.31 7.68l.33-7.68 8.64 1.71M331.49 0c15.38 0 26.58 11.42 26.58 28.17s-11.2 28.18-26.58 28.18S304.92 45 304.92 28.17 316.13 0 331.49 0m0 49.42c10 0 17.19-8.54 17.19-21.25s-7.15-21.23-17.19-21.23-17.28 8.54-17.28 21.23 7.25 21.25 17.28 21.25z"/><path class="cls-4" d="M145 92.28c8.63 0 13.71 6.27 12.25 17.55H132V111c0 15.67 12.88 18.24 24.09 12.67l.56 1.95a23.62 23.62 0 0 1-10.87 2.79c-9 0-16.15-5.85-16.15-17.41 0-13.09 7.8-18.73 15.39-18.73m-12.92 15.95l22.9-.34c.7-7.8-2.64-13.78-10-13.78-5.94 0-11.93 4.31-12.9 14.12zm34.9-15.1l2.16-.49.14 5a21.31 21.31 0 0 1 13.37-5.36C188.7 92.28 193 96 193 104.74v22.84h-2.3v-22.84c0-7.45-3.35-10.51-8.5-10.51-4.11 0-8.77 2-12.95 5.29v28.06H167m50.44-35.3c8.63 0 13.72 6.27 12.26 17.55h-25.27V111c0 15.67 12.87 18.24 24.08 12.67l.56 1.95a23.59 23.59 0 0 1-10.87 2.79c-9 0-16.15-5.85-16.15-17.41 0-13.09 7.8-18.73 15.39-18.73m-12.88 15.94l22.91-.34c.69-7.8-2.65-13.78-10-13.78-5.94.01-11.94 4.32-12.91 14.13zm34.88-15.09l2.16-.49.13 7.87c2.78-5 6.9-8.15 13.09-8.22l.42 2.16c-6.34.14-10.44 2.92-13.51 8.7v24.44h-2.29m34.8-35.3a15.1 15.1 0 0 1 5.16.84h12v1.6l-8.36.35a11.11 11.11 0 0 1 4.46 9.12c0 7-5.57 11.83-13.23 11.83a14.07 14.07 0 0 1-4.32-.56c-4.59 3.07-5.15 8.22 1.12 8.22h7.66c8.77 0 12.94 1.95 12.94 8.35 0 5.58-5.84 11.7-18.37 11.7-10.17 0-14.49-4.25-14.49-9.4 0-3.13 2-6.33 7.25-9.74-3.2-2.23-2.16-6.9 2.09-9.75a11.25 11.25 0 0 1-7-10.65c0-7 5.56-11.91 13.15-11.91m-6.41 33.14c-4.87 3.27-6.68 6.2-6.68 8.91 0 4.11 3.42 7.52 11.9 7.52 11.35 0 16.23-5.15 16.23-9.82 0-5.08-3.48-6.19-10.66-6.19H271a10.07 10.07 0 0 1-3.17-.42zm6.41-11.35c6.34 0 10.93-4 10.93-9.88s-4.59-10-10.93-10-10.86 4.11-10.86 10 4.46 9.88 10.8 9.88zM300.62 79a1.81 1.81 0 1 1 0 3.61 1.81 1.81 0 1 1 0-3.61m-1.11 14.13l2.3-.49v35h-2.3zm27.08-.85c8.63 0 13.71 6.27 12.25 17.55h-25.27V111c0 15.67 12.88 18.24 24.09 12.67l.56 1.95a23.62 23.62 0 0 1-10.87 2.79c-9 0-16.15-5.85-16.15-17.41 0-13.09 7.8-18.73 15.39-18.73m-12.88 15.94l22.9-.34c.7-7.8-2.65-13.78-10-13.78-5.94.01-11.93 4.32-12.9 14.13zm33.48 15.89a23.55 23.55 0 0 0 9.47 2.36c6.19 0 10.23-3.26 10.23-8.14s-4.94-6.27-10-7.94c-5.22-1.67-10.44-3.55-10.44-9.54 0-4.87 4-8.56 11.07-8.56a24.52 24.52 0 0 1 9.68 2.09l-.42 2a26.48 26.48 0 0 0-9.47-2.23c-5.22 0-8.56 2.58-8.56 6.68 0 4.53 4.24 6.06 9 7.6 5.5 1.8 11.42 3.54 11.42 9.88 0 6.62-5.78 10.1-12.88 10.1a22.31 22.31 0 0 1-9.54-2.3"/><path class="cls-1" d="M47.75 94.21a7.3 7.3 0 0 0 .94.1"/><path class="cls-3" d="M47.75 94.21a7.3 7.3 0 0 0 .94.1"/><path class="cls-1" d="M92 64.72a1.47 1.47 0 0 0-.69-.94L84 59.36l4.68-7.7a6 6 0 0 0-10.3-6.25l-4.68 7.71-10-6.07 4.67-7.71a6 6 0 0 0-10.3-6.24l-4.68 7.71L46 36.33a1.53 1.53 0 0 0-2.1.53s-.06.11-.13.22c-.3.51-1.12 1.88-2.32 3.86-6 9.93-7 24.23 2.75 32.53l-4 9.76a8.68 8.68 0 0 0-.39 2.58 8.88 8.88 0 0 0 7.92 8.81h.22a6.48 6.48 0 0 0 .77.07 9 9 0 0 0 8.15-5.36l2.93-6.59a20.51 20.51 0 0 0 7.2 1.35c10.13 0 18.18-7.31 22.33-14.15 1.54-2.55 2.47-4 2.47-4.06a1.53 1.53 0 0 0 .2-1.16M43 84.61c1.11-2.77 4.08-10.08 4.48-10.79a1.52 1.52 0 0 0-.4-2c-9.78-7.4-8.41-20.39-3-29.33.64-1.05 1.18-2 1.58-2.62l.09-.16 7.36 4.46a1.53 1.53 0 0 0 2.1-.51l5.46-9a3.08 3.08 0 0 1 4.09-1 3 3 0 0 1 1 4.08l-5.46 9a1.52 1.52 0 0 0 .51 2.09l12.63 7.66a1.57 1.57 0 0 0 2.07-.49L81 47a3 3 0 0 1 1.84-1.34 2.91 2.91 0 0 1 2.24.36 2.87 2.87 0 0 1 1.35 1.82 2.93 2.93 0 0 1-.34 2.24l-5.49 9a1.55 1.55 0 0 0-.17 1.15 1.5 1.5 0 0 0 .7.94l7.27 4.41c-.42.69-1 1.62-1.68 2.77C83.15 74.2 75.85 81 67 81a17.8 17.8 0 0 1-7.24-1.58 1.54 1.54 0 0 0-1.94.62l-3.74 8a5.83 5.83 0 0 1-11.19-2.32 6.25 6.25 0 0 1 .11-1.11z"/><path class="cls-1" d="M2.76 79.38l-1-.06H1.6a1.54 1.54 0 0 0-1.48 1.41c-1.93 26.72 20 50.21 48.94 52.35 1.16.09 2.4.14 3.7.16a1.53 1.53 0 0 0 1.53-1.48c.9-27.15-21.73-50.16-51.54-52.38m48.51 50.77l-2-.1c-26.45-2-47.08-23.27-46.21-47.58 27.14 2.26 48.19 23.09 48.22 47.68zm54.82-42.72a1.6 1.6 0 0 0-1-.52h-.65c-1.16-.09-2.34-.13-3.5-.13-22.2 0-40.77 15.81-42.28 36a36.77 36.77 0 0 0 .47 9.07 1.53 1.53 0 0 0 1.5 1.27h.17c24.72-2.73 43.94-21.45 45.69-44.51a1.56 1.56 0 0 0-.36-1.12m-2.82 2.41c-2.32 20.58-19.25 37-41.39 40a33.74 33.74 0 0 1-.22-6.89c1.39-18.6 18.62-33.18 39.22-33.18.81-.05 1.59-.03 2.35.01z"/></g></svg>